<mxfile host="Electron" agent="Mozilla/5.0 (Windows NT 10.0; Win64; x64) AppleWebKit/537.36 (KHTML, like Gecko) draw.io/24.7.17 Chrome/128.0.6613.36 Electron/32.0.1 Safari/537.36" version="24.7.17">
  <diagram name="Seite-1" id="JhHq1IQVC20DQAt83Nid">
    <mxGraphModel dx="880" dy="532" grid="1" gridSize="10" guides="1" tooltips="1" connect="1" arrows="1" fold="1" page="1" pageScale="1" pageWidth="827" pageHeight="1169" math="0" shadow="0">
      <root>
        <mxCell id="0" />
        <mxCell id="1" parent="0" />
        <mxCell id="azKyScBbU76Y4fru5Uq9-5" style="edgeStyle=orthogonalEdgeStyle;rounded=0;orthogonalLoop=1;jettySize=auto;html=1;exitX=0.25;exitY=0;exitDx=0;exitDy=0;entryX=0.5;entryY=1;entryDx=0;entryDy=0;" edge="1" parent="1" source="azKyScBbU76Y4fru5Uq9-1" target="azKyScBbU76Y4fru5Uq9-2">
          <mxGeometry relative="1" as="geometry" />
        </mxCell>
        <mxCell id="azKyScBbU76Y4fru5Uq9-8" value="StartButton" style="edgeLabel;html=1;align=center;verticalAlign=middle;resizable=0;points=[];" vertex="1" connectable="0" parent="azKyScBbU76Y4fru5Uq9-5">
          <mxGeometry x="-0.1241" y="1" relative="1" as="geometry">
            <mxPoint as="offset" />
          </mxGeometry>
        </mxCell>
        <mxCell id="azKyScBbU76Y4fru5Uq9-6" style="edgeStyle=orthogonalEdgeStyle;rounded=0;orthogonalLoop=1;jettySize=auto;html=1;entryX=0.425;entryY=1.025;entryDx=0;entryDy=0;exitX=0.408;exitY=0.013;exitDx=0;exitDy=0;exitPerimeter=0;entryPerimeter=0;" edge="1" parent="1" source="azKyScBbU76Y4fru5Uq9-1" target="azKyScBbU76Y4fru5Uq9-3">
          <mxGeometry relative="1" as="geometry" />
        </mxCell>
        <mxCell id="azKyScBbU76Y4fru5Uq9-9" value="ResumeButton" style="edgeLabel;html=1;align=center;verticalAlign=middle;resizable=0;points=[];" vertex="1" connectable="0" parent="azKyScBbU76Y4fru5Uq9-6">
          <mxGeometry x="-0.1125" y="-1" relative="1" as="geometry">
            <mxPoint as="offset" />
          </mxGeometry>
        </mxCell>
        <mxCell id="azKyScBbU76Y4fru5Uq9-7" style="edgeStyle=orthogonalEdgeStyle;rounded=0;orthogonalLoop=1;jettySize=auto;html=1;exitX=0.75;exitY=0;exitDx=0;exitDy=0;entryX=0.5;entryY=1;entryDx=0;entryDy=0;" edge="1" parent="1" source="azKyScBbU76Y4fru5Uq9-1" target="azKyScBbU76Y4fru5Uq9-4">
          <mxGeometry relative="1" as="geometry" />
        </mxCell>
        <mxCell id="azKyScBbU76Y4fru5Uq9-10" value="HistoryButton" style="edgeLabel;html=1;align=center;verticalAlign=middle;resizable=0;points=[];" vertex="1" connectable="0" parent="azKyScBbU76Y4fru5Uq9-7">
          <mxGeometry x="0.069" relative="1" as="geometry">
            <mxPoint as="offset" />
          </mxGeometry>
        </mxCell>
        <mxCell id="azKyScBbU76Y4fru5Uq9-1" value="Main" style="rounded=0;whiteSpace=wrap;html=1;direction=south;" vertex="1" parent="1">
          <mxGeometry x="40" y="200" width="80" height="120" as="geometry" />
        </mxCell>
        <mxCell id="azKyScBbU76Y4fru5Uq9-13" style="edgeStyle=orthogonalEdgeStyle;rounded=0;orthogonalLoop=1;jettySize=auto;html=1;exitX=1;exitY=0.5;exitDx=0;exitDy=0;entryX=0;entryY=0.5;entryDx=0;entryDy=0;" edge="1" parent="1" source="azKyScBbU76Y4fru5Uq9-2" target="azKyScBbU76Y4fru5Uq9-3">
          <mxGeometry relative="1" as="geometry" />
        </mxCell>
        <mxCell id="azKyScBbU76Y4fru5Uq9-14" value="GoButton" style="edgeLabel;html=1;align=center;verticalAlign=middle;resizable=0;points=[];" vertex="1" connectable="0" parent="azKyScBbU76Y4fru5Uq9-13">
          <mxGeometry x="0.025" y="-2" relative="1" as="geometry">
            <mxPoint as="offset" />
          </mxGeometry>
        </mxCell>
        <mxCell id="azKyScBbU76Y4fru5Uq9-21" style="edgeStyle=orthogonalEdgeStyle;rounded=0;orthogonalLoop=1;jettySize=auto;html=1;exitX=0.25;exitY=1;exitDx=0;exitDy=0;entryX=0;entryY=0.5;entryDx=0;entryDy=0;" edge="1" parent="1" source="azKyScBbU76Y4fru5Uq9-2" target="azKyScBbU76Y4fru5Uq9-1">
          <mxGeometry relative="1" as="geometry" />
        </mxCell>
        <mxCell id="azKyScBbU76Y4fru5Uq9-22" value="BackButton" style="edgeLabel;html=1;align=center;verticalAlign=middle;resizable=0;points=[];" vertex="1" connectable="0" parent="azKyScBbU76Y4fru5Uq9-21">
          <mxGeometry x="-0.4324" y="1" relative="1" as="geometry">
            <mxPoint as="offset" />
          </mxGeometry>
        </mxCell>
        <mxCell id="azKyScBbU76Y4fru5Uq9-2" value="Navigation Options" style="rounded=0;whiteSpace=wrap;html=1;direction=south;" vertex="1" parent="1">
          <mxGeometry x="280" width="80" height="120" as="geometry" />
        </mxCell>
        <mxCell id="azKyScBbU76Y4fru5Uq9-15" style="edgeStyle=orthogonalEdgeStyle;rounded=0;orthogonalLoop=1;jettySize=auto;html=1;exitX=1;exitY=0.5;exitDx=0;exitDy=0;entryX=0;entryY=0.5;entryDx=0;entryDy=0;fillColor=#f8cecc;strokeColor=#b85450;" edge="1" parent="1" source="azKyScBbU76Y4fru5Uq9-3" target="azKyScBbU76Y4fru5Uq9-4">
          <mxGeometry relative="1" as="geometry" />
        </mxCell>
        <mxCell id="azKyScBbU76Y4fru5Uq9-16" value="ArrivalEvent" style="edgeLabel;html=1;align=center;verticalAlign=middle;resizable=0;points=[];" vertex="1" connectable="0" parent="azKyScBbU76Y4fru5Uq9-15">
          <mxGeometry x="-0.1" y="-3" relative="1" as="geometry">
            <mxPoint as="offset" />
          </mxGeometry>
        </mxCell>
        <mxCell id="azKyScBbU76Y4fru5Uq9-17" style="edgeStyle=orthogonalEdgeStyle;rounded=0;orthogonalLoop=1;jettySize=auto;html=1;exitX=0.25;exitY=0;exitDx=0;exitDy=0;entryX=0.75;entryY=0;entryDx=0;entryDy=0;" edge="1" parent="1" source="azKyScBbU76Y4fru5Uq9-3" target="azKyScBbU76Y4fru5Uq9-3">
          <mxGeometry relative="1" as="geometry">
            <mxPoint x="440" y="230" as="targetPoint" />
            <Array as="points">
              <mxPoint x="420" y="230" />
              <mxPoint x="420" y="290" />
            </Array>
          </mxGeometry>
        </mxCell>
        <mxCell id="azKyScBbU76Y4fru5Uq9-18" value="EasyModeButton" style="edgeLabel;html=1;align=center;verticalAlign=middle;resizable=0;points=[];" vertex="1" connectable="0" parent="azKyScBbU76Y4fru5Uq9-17">
          <mxGeometry x="-0.0143" y="-2" relative="1" as="geometry">
            <mxPoint as="offset" />
          </mxGeometry>
        </mxCell>
        <mxCell id="azKyScBbU76Y4fru5Uq9-19" style="edgeStyle=orthogonalEdgeStyle;rounded=0;orthogonalLoop=1;jettySize=auto;html=1;exitX=0.5;exitY=1;exitDx=0;exitDy=0;" edge="1" parent="1">
          <mxGeometry relative="1" as="geometry">
            <mxPoint x="280" y="270" as="sourcePoint" />
            <mxPoint x="120" y="270" as="targetPoint" />
          </mxGeometry>
        </mxCell>
        <mxCell id="azKyScBbU76Y4fru5Uq9-20" value="BackButton" style="edgeLabel;html=1;align=center;verticalAlign=middle;resizable=0;points=[];" vertex="1" connectable="0" parent="azKyScBbU76Y4fru5Uq9-19">
          <mxGeometry x="0.0875" relative="1" as="geometry">
            <mxPoint as="offset" />
          </mxGeometry>
        </mxCell>
        <mxCell id="azKyScBbU76Y4fru5Uq9-3" value="Navigation" style="rounded=0;whiteSpace=wrap;html=1;direction=south;" vertex="1" parent="1">
          <mxGeometry x="280" y="200" width="80" height="120" as="geometry" />
        </mxCell>
        <mxCell id="azKyScBbU76Y4fru5Uq9-11" style="edgeStyle=orthogonalEdgeStyle;rounded=0;orthogonalLoop=1;jettySize=auto;html=1;exitX=0.75;exitY=1;exitDx=0;exitDy=0;entryX=1;entryY=0.5;entryDx=0;entryDy=0;" edge="1" parent="1" source="azKyScBbU76Y4fru5Uq9-4" target="azKyScBbU76Y4fru5Uq9-1">
          <mxGeometry relative="1" as="geometry" />
        </mxCell>
        <mxCell id="azKyScBbU76Y4fru5Uq9-12" value="BackButton" style="edgeLabel;html=1;align=center;verticalAlign=middle;resizable=0;points=[];" vertex="1" connectable="0" parent="azKyScBbU76Y4fru5Uq9-11">
          <mxGeometry x="-0.2242" relative="1" as="geometry">
            <mxPoint as="offset" />
          </mxGeometry>
        </mxCell>
        <mxCell id="azKyScBbU76Y4fru5Uq9-4" value="History" style="rounded=0;whiteSpace=wrap;html=1;direction=south;" vertex="1" parent="1">
          <mxGeometry x="280" y="400" width="80" height="120" as="geometry" />
        </mxCell>
      </root>
    </mxGraphModel>
  </diagram>
</mxfile>
